<svg xmlns="http://www.w3.org/2000/svg" viewBox="0 0 300 300" fill="none">
  <!-- Shield shape -->
  <path d="M150 30C80 30 50 80 50 120V230C50 245 65 265 150 285C235 265 250 245 250 230V120C250 80 220 30 150 30Z" fill="#B30000" stroke="#8B0000" stroke-width="2"/>
  
  <!-- Inner shield -->
  <path d="M150 50C95 50 70 85 70 120V220C70 230 80 245 150 265C220 245 230 230 230 220V120C230 85 205 50 150 50Z" fill="#C00000" stroke="#A00000" stroke-width="1"/>
  
  <!-- Left ribbon -->
  <path d="M55 100H80L90 80H55V100Z" fill="#B30000" stroke="#8B0000" stroke-width="1"/>
  <rect x="55" y="80" width="35" height="20" fill="#B30000" stroke="#8B0000" stroke-width="1"/>
  <text x="72.5" y="95" text-anchor="middle" font-family="Arial, sans-serif" font-size="12" font-weight="bold" fill="white">NSU</text>
  
  <!-- Right ribbon -->
  <path d="M245 100H220L210 80H245V100Z" fill="#B30000" stroke="#8B0000" stroke-width="1"/>
  <rect x="210" y="80" width="35" height="20" fill="#B30000" stroke="#8B0000" stroke-width="1"/>
  <text x="227.5" y="95" text-anchor="middle" font-family="Arial, sans-serif" font-size="12" font-weight="bold" fill="white">2024</text>
  
  <!-- Main text -->
  <text x="150" y="120" text-anchor="middle" font-family="Arial, sans-serif" font-size="30" font-weight="bold" fill="white">NSU</text>
  <text x="150" y="145" text-anchor="middle" font-family="Arial, sans-serif" font-size="16" font-weight="bold" fill="white">CAMPUS</text>
  
  <!-- Center emblem -->
  <path d="M150 160L175 190L125 190L150 160Z" fill="white" stroke="white" stroke-width="1"/>
  <path d="M150 170L160 190H140L150 170Z" fill="white" stroke="white" stroke-width="1"/>
  
  <!-- Olive branches -->
  <!-- Left side -->
  <path d="M125 200C115 190 105 180 110 160C115 165 120 170 125 175" stroke="#D4AF37" stroke-width="2"/>
  <path d="M130 205C120 195 110 185 115 165C120 170 125 175 130 180" stroke="#D4AF37" stroke-width="2"/>
  <path d="M135 210C125 200 115 190 120 170C125 175 130 180 135 185" stroke="#D4AF37" stroke-width="2"/>
  
  <!-- Right side -->
  <path d="M175 200C185 190 195 180 190 160C185 165 180 170 175 175" stroke="#D4AF37" stroke-width="2"/>
  <path d="M170 205C180 195 190 185 185 165C180 170 175 175 170 180" stroke="#D4AF37" stroke-width="2"/>
  <path d="M165 210C175 200 185 190 180 170C175 175 170 180 165 185" stroke="#D4AF37" stroke-width="2"/>
</svg>
